<svg width="21" height="21" viewBox="0 0 21 21" fill="none" xmlns="http://www.w3.org/2000/svg">
<path d="M10.5 0.714355C4.98 0.714355 0.5 5.19436 0.5 10.7144C0.5 16.2344 4.98 20.7144 10.5 20.7144C16.02 20.7144 20.5 16.2344 20.5 10.7144C20.5 5.19436 16.02 0.714355 10.5 0.714355ZM7.79 15.0044L4.2 11.4144C3.81 11.0244 3.81 10.3944 4.2 10.0044C4.59 9.61436 5.22 9.61436 5.61 10.0044L8.5 12.8844L15.38 6.00436C15.77 5.61436 16.4 5.61436 16.79 6.00436C17.18 6.39436 17.18 7.02436 16.79 7.41436L9.2 15.0044C8.82 15.3944 8.18 15.3944 7.79 15.0044Z" fill="#0578FE"/>
</svg>
