<svg width="14" height="15" viewBox="0 0 14 15" fill="none" xmlns="http://www.w3.org/2000/svg">
<path d="M13.3007 1.21C12.9107 0.820001 12.2807 0.820001 11.8907 1.21L7.0007 6.09L2.1107 1.2C1.7207 0.810001 1.0907 0.810001 0.700703 1.2C0.310703 1.59 0.310703 2.22 0.700703 2.61L5.5907 7.5L0.700703 12.39C0.310703 12.78 0.310703 13.41 0.700703 13.8C1.0907 14.19 1.7207 14.19 2.1107 13.8L7.0007 8.91L11.8907 13.8C12.2807 14.19 12.9107 14.19 13.3007 13.8C13.6907 13.41 13.6907 12.78 13.3007 12.39L8.4107 7.5L13.3007 2.61C13.6807 2.23 13.6807 1.59 13.3007 1.21Z" fill="#0E0E0E"/>
</svg>
