<svg width="287" height="69" viewBox="0 0 287 69" fill="none" xmlns="http://www.w3.org/2000/svg">
<path d="M28.8708 67.6706C61.0177 62.3469 155.902 53.2966 278.265 59.6851" stroke="#0578FE"/>
<path d="M286.979 38.0858L286.887 38.1775C287.255 38.8201 286.887 39.279 283.308 41.6656C278.351 45.0619 273.761 47.2649 271.466 47.1731C268.805 47.0813 268.162 45.2455 268.346 43.5932L268.529 41.7574L266.051 43.7768C262.012 46.9895 259.901 47.5403 258.524 45.888C257.698 44.8783 258.34 42.4917 260.176 39.3708C261.737 36.8007 262.379 36.3417 263.297 37.0761C263.756 37.4432 263.664 37.6268 262.563 39.4626C261.92 40.5641 261.186 41.941 260.91 42.5835C260.36 43.8686 260.268 45.3373 260.727 45.3373C261.186 45.3373 263.848 43.4097 267.519 40.4723C270.824 37.8104 271.65 37.4432 272.109 38.4529C272.201 38.6365 271.834 40.0134 271.283 41.3902C270.732 42.7671 270.273 44.2358 270.273 44.6029C270.273 46.9895 275.23 45.0619 283.308 39.5544C284.042 39.0037 284.776 38.5447 285.327 38.1775C285.969 37.7186 286.704 37.535 286.979 38.0858Z" fill="white"/>
<path d="M255.067 38.0857L255.159 38.2693C257.178 37.5349 258.096 37.5349 258.096 38.3611C258.096 38.6364 257.637 39.0036 256.903 39.3708C255.71 39.9215 253.782 40.3805 252.13 40.4723C249.468 40.6558 248.091 39.9215 246.989 38.82C246.531 38.3611 246.072 37.9939 245.888 37.9939C245.429 37.9939 241.941 41.3902 238.82 44.7864C237.26 46.5305 235.791 47.9074 235.516 47.9074C235.24 47.9074 234.873 47.7238 234.689 47.5402C234.139 46.9894 235.148 44.5111 237.535 40.6558C239.554 37.3514 240.197 36.8006 241.023 37.5349C241.482 37.9021 241.482 37.9939 240.839 39.0954C240.105 40.1969 240.197 40.1969 242.951 37.9939C246.347 35.3319 246.806 35.2402 247.907 37.076C248.642 38.1775 249.101 38.7282 251.304 38.7282C252.589 38.7282 253.69 38.5446 255.067 38.0857Z" fill="white"/>
<path d="M232.794 38.0857L232.886 38.2693C234.905 37.5349 235.823 37.5349 235.823 38.3611C235.823 38.6364 235.364 39.0036 234.63 39.3708C233.436 39.9215 231.509 40.3805 229.856 40.4723C227.194 40.6558 225.818 39.9215 224.716 38.82C224.257 38.3611 223.798 37.9939 223.615 37.9939C223.156 37.9939 219.668 41.3902 216.547 44.7864C214.986 46.5305 213.518 47.9074 213.242 47.9074C212.967 47.9074 212.6 47.7238 212.416 47.5402C211.865 46.9894 212.875 44.5111 215.262 40.6558C217.281 37.3514 217.924 36.8006 218.75 37.5349C219.209 37.9021 219.209 37.9939 218.566 39.0954C217.832 40.1969 217.924 40.1969 220.677 37.9939C224.074 35.3319 224.533 35.2402 225.634 37.076C226.368 38.1775 226.827 38.7282 229.03 38.7282C230.315 38.7282 231.417 38.5446 232.794 38.0857Z" fill="white"/>
<path d="M217.021 38.0858L216.929 38.1775C217.296 38.8201 216.929 39.279 213.349 41.6656C208.392 45.0619 203.803 47.2649 201.508 47.1731C198.846 47.0813 198.203 45.2455 198.387 43.5932L198.57 41.7574L196.092 43.7768C192.053 46.9895 189.942 47.5403 188.565 45.888C187.739 44.8783 188.382 42.4917 190.217 39.3708C191.778 36.8007 192.42 36.3417 193.338 37.0761C193.797 37.4432 193.706 37.6268 192.604 39.4626C191.961 40.5641 191.227 41.941 190.952 42.5835C190.401 43.8686 190.309 45.3373 190.768 45.3373C191.227 45.3373 193.889 43.4097 197.561 40.4723C200.865 37.8104 201.691 37.4432 202.15 38.4529C202.242 38.6365 201.875 40.0134 201.324 41.3902C200.773 42.7671 200.315 44.2358 200.315 44.6029C200.315 46.9895 205.271 45.0619 213.349 39.5544C214.083 39.0037 214.818 38.5447 215.368 38.1775C216.011 37.7186 216.745 37.535 217.021 38.0858Z" fill="white"/>
<path d="M146.332 41.2066H146.24C151.931 25.9693 164.323 10.7319 177.449 3.38859C182.681 0.451273 190.208 -1.38456 192.319 5.13263C192.962 7.15203 192.136 12.3841 190.575 15.8722C188.189 21.2879 184.793 26.7036 183.691 26.8872C182.59 27.0708 182.773 26.1528 184.609 23.3073C187.546 18.8095 189.474 14.4036 190.208 10.6401C190.851 7.70279 190.851 7.33562 190.392 5.77517C189.199 1.46098 184.425 1.82814 178.459 5.22442C169.831 10.0894 158.632 21.2879 152.115 33.5879C146.883 43.3178 144.68 53.5984 146.699 58.7388C149.178 64.9806 155.695 63.9709 163.589 56.1686C164.782 54.9753 166.985 52.4969 168.454 50.6611C172.676 45.429 176.531 40.4723 176.44 40.3805C176.348 40.1969 171.483 41.1148 170.198 41.482C169.004 41.8492 168.362 41.5738 168.637 40.7477C168.821 40.1969 169.28 40.0133 170.932 39.5544C176.348 38.1775 184.425 37.6268 185.16 38.5447C185.802 39.279 185.343 39.6462 183.966 39.5544C183.324 39.4626 182.039 39.4626 181.213 39.5544L179.652 39.738L178 42.4917C173.869 49.2842 167.719 62.594 166.985 66.4492C166.618 68.285 166.067 68.744 165.333 67.8261C165.057 67.4589 165.057 66.8164 165.241 65.7149C165.516 64.1544 168.913 55.4343 170.657 51.8544C171.391 50.2939 171.391 50.1104 170.84 50.6611C163.864 58.647 161.478 60.8499 157.531 62.8694C154.318 64.4298 151.105 64.797 148.535 63.3283C145.965 61.9514 144.404 59.0141 143.945 54.6999C143.67 51.8544 144.863 45.0619 146.332 41.2066Z" fill="white"/>
<path d="M125.621 38.2692L125.529 38.361C128.099 37.3513 128.834 37.3513 128.834 38.2692C128.834 38.7281 128.283 39.0953 126.355 39.8296C124.978 40.3804 121.857 41.4819 118.92 42.5834L113.688 44.6946L113.504 46.1632C113.229 48.1826 111.852 49.9267 110.016 50.661C108.364 51.3035 106.528 51.3953 105.61 50.8446C104.784 50.3856 104.784 48.8252 105.61 47.9073C106.253 47.1729 108.731 45.4289 110.2 44.6028L110.934 44.2356L110.384 41.849C109.833 39.7378 109.833 39.3707 110.292 38.361C110.842 37.1677 111.76 36.4333 112.587 36.4333C112.77 36.4333 112.954 36.4334 113.137 36.5251C114.055 36.8923 114.055 37.4431 113.229 37.902C112.219 38.4528 111.944 39.5543 112.403 41.2983C112.862 43.0423 113.045 43.3177 113.688 42.8587C113.963 42.6752 116.258 41.7572 118.828 40.7475C121.398 39.7378 124.244 38.8199 125.621 38.2692ZM109.19 48.8252L109.098 48.7334C110.475 47.8155 111.577 45.9796 110.751 45.9796C110.384 45.9796 107.171 48.3662 106.804 48.917C106.528 49.3759 106.62 49.4677 107.354 49.4677C107.813 49.4677 108.639 49.1923 109.19 48.8252Z" fill="white"/>
<path d="M110.688 38.0856L110.963 37.7184C111.055 37.9938 110.504 38.6363 109.494 39.4625C106.924 41.6655 101.876 45.0617 98.5713 46.4386C95.2668 47.9073 93.0638 47.7237 91.9623 45.9797C91.3198 44.9699 91.5033 43.8684 92.6966 40.7475C93.1556 39.5543 93.431 38.5446 93.3392 38.4528C92.8802 38.0856 88.3824 40.7475 85.9041 42.8587C83.4257 44.9699 80.0294 47.2647 79.3869 47.2647C79.0197 47.2647 78.469 47.0811 78.1936 46.8058C77.8264 46.5304 77.7347 46.0714 77.8264 45.4289C78.1936 43.4095 81.7735 37.4431 83.0585 36.8005C83.4257 36.6169 83.7011 36.6169 84.0683 36.9841C84.619 37.4431 84.619 37.5349 83.7929 38.6363C82.5996 40.2886 80.3966 43.9602 80.1212 44.7864C79.9376 45.2453 80.9474 44.6028 83.5175 42.5834C89.5757 37.902 92.972 36.3416 94.5325 37.5348C95.4504 38.1774 95.3586 39.4625 94.3489 41.9408C93.431 44.1438 93.2474 45.8879 93.8899 46.0714C95.5422 46.5304 100.499 43.9602 106.924 39.3707C109.494 37.5349 110.321 37.2595 110.688 38.0856Z" fill="white"/>
<path d="M79.7792 38.6364L79.5956 38.5446C81.3396 37.3513 81.7986 37.4431 81.7986 38.4528C81.7986 38.6364 81.4314 39.0953 80.7889 39.7379C78.9531 41.5737 75.465 44.2356 73.262 45.5207C69.2232 47.8155 66.9284 48.0909 65.0926 46.6222C64.0829 45.7961 63.9911 45.5207 63.9911 44.1438V42.5834L61.7881 44.2356C57.5657 47.4483 54.5366 48.5498 52.8843 47.5401C50.5895 46.1633 53.7104 40.564 58.2082 37.9938C59.4933 37.2595 60.6866 36.8923 61.6963 36.8923C62.9814 36.8923 63.9911 37.4431 64.5418 38.5446L65.0008 39.4625L65.9187 38.7282C66.9284 37.902 67.2956 37.8102 67.8463 38.361C68.2135 38.7282 68.1217 39.0953 67.2956 40.564C66.1023 42.767 65.7351 44.4192 66.2859 45.2453C66.653 45.7043 66.9284 45.7961 68.0299 45.7043C70.1411 45.5207 72.7112 44.1438 76.9336 40.7476C78.1269 39.8297 79.0448 39.0953 79.7792 38.6364ZM60.962 42.4916L61.1455 42.5834C63.2567 41.0229 63.3485 40.9311 63.0732 40.0132C62.8896 39.4625 62.6142 38.9117 62.4306 38.8199C62.3388 38.7282 62.1552 38.6364 61.9717 38.6364C59.9523 38.5446 54.9037 42.8588 54.2612 45.5207C53.9858 46.714 54.5366 46.6222 56.9231 45.2453C57.9328 44.6028 59.7687 43.4095 60.962 42.4916Z" fill="white"/>
<path d="M50.2354 38.0857L50.3272 38.2693C52.3466 37.5349 53.2645 37.5349 53.2645 38.3611C53.2645 38.6364 52.8056 39.0036 52.0712 39.3708C50.878 39.9215 48.9503 40.3805 47.2981 40.4723C44.6361 40.6558 43.2593 39.9215 42.1578 38.82C41.6988 38.3611 41.2399 37.9939 41.0563 37.9939C40.5973 37.9939 37.1093 41.3902 33.9884 44.7864C32.4279 46.5305 30.9592 47.9074 30.6839 47.9074C30.4085 47.9074 30.0413 47.7238 29.8577 47.5402C29.307 46.9894 30.3167 44.5111 32.7033 40.6558C34.7227 37.3514 35.3652 36.8006 36.1913 37.5349C36.6503 37.9021 36.6503 37.9939 36.0078 39.0954C35.2734 40.1969 35.3652 40.1969 38.119 37.9939C41.5152 35.3319 41.9742 35.2402 43.0757 37.076C43.81 38.1775 44.269 38.7282 46.472 38.7282C47.7571 38.7282 48.8585 38.5446 50.2354 38.0857Z" fill="white"/>
<path d="M9.11371 67.2754L9.2055 67.459C8.37938 66.6329 10.1234 61.1254 14.1622 51.7627C17.9257 42.9507 20.1287 38.8201 34.3563 14.4954L38.9459 6.60134H37.3854C35.7332 6.60134 28.5735 7.15209 24.0757 7.61105C12.51 8.89613 8.104 9.53866 3.78981 10.4566C2.04578 10.8237 0.485324 11.0991 0.301741 11.0073C-0.157215 10.8237 -0.0654239 9.99762 0.393533 9.63045C0.944281 9.26328 6.45176 8.16179 10.3988 7.61105C17.2831 6.60134 30.8683 5.22447 36.8347 4.8573L40.0474 4.67372L40.8735 3.57223C41.516 2.7461 41.8832 2.47073 42.434 2.56252C42.9847 2.65431 43.0765 2.83789 43.0765 3.57223L42.9847 4.49014L45.1877 4.30656C46.381 4.21476 50.9706 4.03118 55.3765 3.93939C67.1258 3.66402 78.5079 4.39835 80.0684 5.49985C80.7109 5.86701 80.5274 6.78492 79.793 7.15209C79.3341 7.42746 79.1505 7.42746 78.7833 7.06029C77.8654 6.05059 75.1117 5.86701 59.3236 5.86701C51.0623 5.86701 43.6272 5.9588 42.8011 6.05059L41.3325 6.32596L35.825 15.8723C32.7959 21.1044 29.5832 26.5201 28.757 27.8969C20.5876 41.8492 15.1719 52.8642 12.051 61.9515C11.0413 64.797 10.9495 65.3478 11.3167 65.8985C11.6839 66.4493 11.6839 66.6329 11.2249 67.0918C10.4906 67.7344 9.66446 67.8261 9.11371 67.2754Z" fill="white"/>
</svg>
