<svg width="234" height="55" viewBox="0 0 234 55" fill="none" xmlns="http://www.w3.org/2000/svg">
<path d="M23.5 54.5C49.6667 50.1667 126.9 42.8 226.5 48" stroke="#0578FE"/>
<path d="M233.593 30.4186L233.518 30.4933C233.817 31.0163 233.518 31.3899 230.604 33.3325C226.569 36.097 222.834 37.8901 220.966 37.8154C218.799 37.7407 218.276 36.2464 218.425 34.9015L218.575 33.4072L216.558 35.051C213.27 37.666 211.552 38.1143 210.431 36.7694C209.758 35.9475 210.281 34.0049 211.776 31.4646C213.046 29.3726 213.569 28.999 214.316 29.5967C214.69 29.8956 214.615 30.045 213.718 31.5393C213.195 32.4359 212.598 33.5566 212.373 34.0797C211.925 35.1257 211.85 36.3211 212.224 36.3211C212.598 36.3211 214.764 34.7521 217.753 32.3612C220.443 30.1944 221.115 29.8956 221.489 30.7175C221.563 30.8669 221.265 31.9876 220.816 33.1084C220.368 34.2291 219.994 35.4245 219.994 35.7234C219.994 37.666 224.029 36.097 230.604 31.614C231.202 31.1658 231.799 30.7922 232.248 30.4933C232.771 30.1197 233.369 29.9703 233.593 30.4186Z" fill="black"/>
<path d="M207.617 30.4186L207.692 30.5681C209.336 29.9703 210.083 29.9703 210.083 30.6428C210.083 30.8669 209.709 31.1658 209.112 31.4646C208.14 31.9129 206.571 32.2865 205.226 32.3612C203.06 32.5107 201.939 31.9129 201.042 31.0163C200.669 30.6428 200.295 30.3439 200.146 30.3439C199.772 30.3439 196.933 33.1084 194.393 35.8729C193.122 37.2925 191.927 38.4132 191.703 38.4132C191.479 38.4132 191.18 38.2638 191.03 38.1143C190.582 37.666 191.404 35.6487 193.347 32.5107C194.99 29.8209 195.513 29.3726 196.186 29.9703C196.559 30.2692 196.559 30.3439 196.036 31.2405C195.439 32.1371 195.513 32.1371 197.755 30.3439C200.519 28.1772 200.893 28.1024 201.789 29.5968C202.387 30.4933 202.761 30.9416 204.554 30.9416C205.6 30.9416 206.497 30.7922 207.617 30.4186Z" fill="black"/>
<path d="M189.487 30.4186L189.562 30.5681C191.206 29.9703 191.953 29.9703 191.953 30.6428C191.953 30.8669 191.579 31.1658 190.982 31.4646C190.01 31.9129 188.441 32.2865 187.096 32.3612C184.93 32.5107 183.809 31.9129 182.912 31.0163C182.539 30.6428 182.165 30.3439 182.016 30.3439C181.642 30.3439 178.803 33.1084 176.263 35.8729C174.992 37.2925 173.797 38.4132 173.573 38.4132C173.349 38.4132 173.05 38.2638 172.9 38.1143C172.452 37.666 173.274 35.6487 175.217 32.5107C176.86 29.8209 177.383 29.3726 178.056 29.9703C178.429 30.2692 178.429 30.3439 177.906 31.2405C177.309 32.1371 177.383 32.1371 179.625 30.3439C182.389 28.1772 182.763 28.1024 183.659 29.5968C184.257 30.4933 184.631 30.9416 186.424 30.9416C187.47 30.9416 188.366 30.7922 189.487 30.4186Z" fill="black"/>
<path d="M176.648 30.4186L176.574 30.4933C176.873 31.0163 176.574 31.3899 173.66 33.3325C169.625 36.097 165.889 37.8901 164.022 37.8154C161.855 37.7407 161.332 36.2464 161.481 34.9015L161.631 33.4072L159.613 35.051C156.326 37.666 154.607 38.1143 153.487 36.7694C152.814 35.9475 153.337 34.0049 154.832 31.4646C156.102 29.3726 156.625 28.999 157.372 29.5967C157.745 29.8956 157.671 30.045 156.774 31.5393C156.251 32.4359 155.653 33.5566 155.429 34.0797C154.981 35.1257 154.906 36.3211 155.28 36.3211C155.653 36.3211 157.82 34.7521 160.809 32.3612C163.499 30.1944 164.171 29.8956 164.545 30.7175C164.619 30.8669 164.32 31.9876 163.872 33.1084C163.424 34.2291 163.05 35.4245 163.05 35.7234C163.05 37.666 167.085 36.097 173.66 31.614C174.258 31.1658 174.855 30.7922 175.304 30.4933C175.827 30.1197 176.424 29.9703 176.648 30.4186Z" fill="black"/>
<path d="M119.11 32.9589H119.035C123.668 20.5562 133.754 8.15339 144.439 2.17616C148.697 -0.214738 154.824 -1.70905 156.543 3.59575C157.066 5.23949 156.393 9.49827 155.123 12.3375C153.18 16.7457 150.416 21.1539 149.519 21.3033C148.623 21.4528 148.772 20.7056 150.266 18.3894C152.657 14.7284 154.226 11.142 154.824 8.07868C155.347 5.68779 155.347 5.38892 154.974 4.11876C154.002 0.607131 150.117 0.905994 145.261 3.67047C138.237 7.63038 129.122 16.7457 123.817 26.7576C119.558 34.6774 117.765 43.0455 119.409 47.2296C121.426 52.3102 126.731 51.4884 133.157 45.1376C134.128 44.1663 135.921 42.1489 137.117 40.6546C140.553 36.3958 143.692 32.3612 143.617 32.2865C143.542 32.1371 139.582 32.8842 138.536 33.1831C137.565 33.4819 137.042 33.2578 137.266 32.5854C137.415 32.1371 137.789 31.9876 139.134 31.6141C143.542 30.4933 150.117 30.045 150.715 30.7922C151.238 31.3899 150.864 31.6888 149.743 31.6141C149.22 31.5393 148.174 31.5393 147.502 31.6141L146.232 31.7635L144.887 34.005C141.525 39.5339 136.519 50.3676 135.921 53.5057C135.622 55 135.174 55.3736 134.576 54.6264C134.352 54.3276 134.352 53.8046 134.501 52.908C134.726 51.6378 137.49 44.5398 138.91 41.6259C139.507 40.3558 139.507 40.2063 139.059 40.6546C133.381 47.1549 131.438 48.948 128.225 50.5918C125.61 51.8619 122.995 52.1608 120.903 50.9654C118.811 49.8446 117.541 47.4537 117.168 43.9421C116.943 41.6259 117.915 36.097 119.11 32.9589Z" fill="black"/>
<path d="M102.252 30.568L102.177 30.6428C104.269 29.8209 104.867 29.8209 104.867 30.568C104.867 30.9416 104.419 31.2405 102.85 31.8382C101.729 32.2865 99.1884 33.1831 96.7975 34.0797L92.5388 35.7981L92.3893 36.9936C92.1652 38.6373 91.0445 40.0569 89.5501 40.6546C88.2053 41.1776 86.711 41.2524 85.9638 40.8041C85.2914 40.4305 85.2914 39.1603 85.9638 38.4132C86.4868 37.8154 88.5041 36.3958 89.6996 35.7234L90.2973 35.4245L89.849 33.4819C89.4007 31.7635 89.4007 31.4646 89.7743 30.6428C90.2226 29.6715 90.9697 29.0737 91.6422 29.0737C91.7916 29.0737 91.941 29.0737 92.0905 29.1484C92.8376 29.4473 92.8376 29.8956 92.1652 30.2692C91.3433 30.7175 91.1192 31.6141 91.4927 33.0337C91.8663 34.4532 92.0158 34.6774 92.5388 34.3038C92.7629 34.1544 94.6308 33.4072 96.7228 32.5854C98.8149 31.7635 101.131 31.0163 102.252 30.568ZM88.8777 39.1603L88.803 39.0856C89.9237 38.3385 90.8203 36.8441 90.1479 36.8441C89.849 36.8441 87.234 38.7867 86.9351 39.235C86.711 39.6086 86.7857 39.6833 87.3834 39.6833C87.757 39.6833 88.4294 39.4592 88.8777 39.1603Z" fill="black"/>
<path d="M90.0965 30.4186L90.3207 30.1198C90.3954 30.3439 89.9471 30.8669 89.1252 31.5393C87.0332 33.3325 82.9238 36.097 80.2341 37.2177C77.5443 38.4132 75.7511 38.2637 74.8545 36.8441C74.3315 36.0223 74.481 35.1257 75.4523 32.5854C75.8258 31.6141 76.05 30.7922 75.9753 30.7175C75.6017 30.4186 71.9406 32.5854 69.9233 34.3038C67.906 36.0223 65.1415 37.8902 64.6185 37.8902C64.3197 37.8902 63.8714 37.7407 63.6472 37.5166C63.3484 37.2924 63.2736 36.9189 63.3484 36.3959C63.6472 34.7521 66.5611 29.8956 67.6071 29.3726C67.906 29.2232 68.1301 29.2232 68.429 29.522C68.8773 29.8956 68.8773 29.9703 68.2049 30.8669C67.2336 32.2118 65.4404 35.2004 65.2162 35.8728C65.0668 36.2464 65.8887 35.7234 67.9807 34.0797C72.9119 30.2692 75.6764 28.999 76.9466 29.9703C77.6937 30.4933 77.619 31.5393 76.7972 33.5567C76.05 35.3498 75.9006 36.7694 76.4236 36.9189C77.7684 37.2924 81.8031 35.2004 87.0332 31.4646C89.1252 29.9703 89.7976 29.7462 90.0965 30.4186Z" fill="black"/>
<path d="M64.9378 30.8669L64.7884 30.7922C66.208 29.8209 66.5815 29.8956 66.5815 30.7175C66.5815 30.8669 66.2827 31.2405 65.7597 31.7635C64.2654 33.2578 61.4262 35.4246 59.633 36.4706C56.3455 38.3385 54.4776 38.5626 52.9833 37.3672C52.1615 36.6947 52.0867 36.4706 52.0867 35.3499V34.0797L50.2936 35.4246C46.8567 38.0396 44.391 38.9362 43.0462 38.1143C41.1783 36.9936 43.7186 32.4359 47.3797 30.3439C48.4257 29.7462 49.397 29.4473 50.2189 29.4473C51.2649 29.4473 52.0867 29.8956 52.535 30.7922L52.9086 31.5394L53.6558 30.9416C54.4776 30.2692 54.7765 30.1945 55.2248 30.6428C55.5237 30.9416 55.4489 31.2405 54.7765 32.4359C53.8052 34.2291 53.5063 35.574 53.9546 36.2464C54.2535 36.62 54.4776 36.6947 55.3742 36.62C57.0927 36.4706 59.1847 35.3498 62.6216 32.5854C63.5929 31.8382 64.3401 31.2405 64.9378 30.8669ZM49.6211 34.005L49.7706 34.0797C51.489 32.8095 51.5637 32.7348 51.3396 31.9877C51.1902 31.5394 50.966 31.0911 50.8166 31.0163C50.7419 30.9416 50.5924 30.8669 50.443 30.8669C48.7993 30.7922 44.6899 34.3038 44.1669 36.4706C43.9428 37.4419 44.391 37.3672 46.3336 36.2464C47.1555 35.7234 48.6498 34.7521 49.6211 34.005Z" fill="black"/>
<path d="M40.8901 30.4186L40.9648 30.5681C42.6086 29.9703 43.3557 29.9703 43.3557 30.6428C43.3557 30.8669 42.9821 31.1658 42.3844 31.4646C41.4131 31.9129 39.8441 32.2865 38.4992 32.3612C36.3325 32.5107 35.2117 31.9129 34.3151 31.0163C33.9416 30.6428 33.568 30.3439 33.4186 30.3439C33.045 30.3439 30.2058 33.1084 27.6655 35.8729C26.3953 37.2925 25.1999 38.4132 24.9757 38.4132C24.7516 38.4132 24.4527 38.2638 24.3033 38.1143C23.855 37.666 24.6769 35.6487 26.6195 32.5107C28.2632 29.8209 28.7862 29.3726 29.4586 29.9703C29.8322 30.2692 29.8322 30.3439 29.3092 31.2405C28.7115 32.1371 28.7862 32.1371 31.0277 30.3439C33.7921 28.1772 34.1657 28.1024 35.0623 29.5968C35.66 30.4933 36.0336 30.9416 37.8268 30.9416C38.8728 30.9416 39.7694 30.7922 40.8901 30.4186Z" fill="black"/>
<path d="M7.41829 54.1781L7.49301 54.3275C6.82057 53.6551 8.24016 49.1722 11.5276 41.5512C14.591 34.3785 16.3842 31.0163 27.9651 11.2167L31.7008 4.79117H30.4307C29.0858 4.79117 23.258 5.23946 19.5969 5.61304C10.1828 6.65906 6.59642 7.18207 3.0848 7.92922C1.6652 8.22808 0.39504 8.45223 0.245609 8.37751C-0.127969 8.22808 -0.0532532 7.55564 0.320324 7.25678C0.768617 6.95792 5.25155 6.06134 8.46431 5.61304C14.068 4.79117 25.1259 3.67044 29.9824 3.37158L32.5974 3.22215L33.2699 2.32556C33.7929 1.65312 34.0917 1.42897 34.54 1.50369C34.9883 1.57841 35.063 1.72783 35.063 2.32556L34.9883 3.07271L36.7815 2.92328C37.7528 2.84857 41.4886 2.69914 45.0749 2.62442C54.6385 2.40027 63.9032 2.998 65.1734 3.89459C65.6964 4.19345 65.5469 4.9406 64.9492 5.23946C64.5756 5.46361 64.4262 5.46361 64.1273 5.16475C63.3802 4.34288 61.1387 4.19345 48.2877 4.19345C41.5633 4.19345 35.5113 4.26816 34.8389 4.34288L33.6434 4.56702L29.1605 12.3374C26.6949 16.5962 24.0798 21.0044 23.4074 22.1252C16.7577 33.4819 12.3495 42.4478 9.80919 49.8446C8.98732 52.1608 8.9126 52.6091 9.21146 53.0574C9.51033 53.5057 9.51033 53.6551 9.13675 54.0287C8.53903 54.5517 7.86659 54.6264 7.41829 54.1781Z" fill="black"/>
</svg>
