<svg width="147" height="35" viewBox="0 0 147 35" fill="none" xmlns="http://www.w3.org/2000/svg">
<path d="M15.3359 34.1521C31.7331 31.4367 80.131 26.8204 142.545 30.079" stroke="#0578FE"/>
<path d="M146.989 19.0616L146.942 19.1085C147.13 19.4362 146.942 19.6703 145.116 20.8876C142.588 22.62 140.247 23.7436 139.077 23.6968C137.719 23.65 137.391 22.7136 137.485 21.8708L137.578 20.9344L136.314 21.9645C134.254 23.6032 133.177 23.8841 132.475 23.0413C132.054 22.5263 132.381 21.309 133.318 19.7171C134.114 18.4062 134.442 18.1721 134.91 18.5466C135.144 18.7339 135.097 18.8275 134.535 19.7639C134.207 20.3258 133.833 21.0281 133.692 21.3558C133.411 22.0113 133.365 22.7604 133.599 22.7604C133.833 22.7604 135.191 21.7772 137.063 20.279C138.749 18.9212 139.17 18.7339 139.404 19.2489C139.451 19.3426 139.264 20.0449 138.983 20.7472C138.702 21.4495 138.468 22.1986 138.468 22.3859C138.468 23.6032 140.996 22.62 145.116 19.8108C145.491 19.5298 145.866 19.2957 146.147 19.1085C146.474 18.8744 146.849 18.7807 146.989 19.0616Z" fill="black"/>
<path d="M130.712 19.0617L130.759 19.1553C131.789 18.7808 132.257 18.7808 132.257 19.2021C132.257 19.3426 132.023 19.5299 131.648 19.7172C131.04 19.9981 130.056 20.2322 129.214 20.279C127.856 20.3726 127.154 19.9981 126.592 19.4362C126.358 19.2021 126.123 19.0149 126.03 19.0149C125.796 19.0149 124.017 20.7472 122.425 22.4795C121.629 23.3691 120.88 24.0714 120.739 24.0714C120.599 24.0714 120.411 23.9778 120.318 23.8841C120.037 23.6032 120.552 22.3391 121.769 20.3726C122.799 18.6871 123.127 18.4062 123.548 18.7808C123.782 18.968 123.782 19.0149 123.455 19.5767C123.08 20.1385 123.127 20.1385 124.532 19.0149C126.264 17.6571 126.498 17.6103 127.06 18.5467C127.434 19.1085 127.669 19.3894 128.792 19.3894C129.448 19.3894 130.01 19.2958 130.712 19.0617Z" fill="black"/>
<path d="M119.351 19.0617L119.398 19.1553C120.428 18.7808 120.896 18.7808 120.896 19.2021C120.896 19.3426 120.662 19.5299 120.287 19.7172C119.679 19.9981 118.695 20.2322 117.853 20.279C116.495 20.3726 115.793 19.9981 115.231 19.4362C114.997 19.2021 114.763 19.0149 114.669 19.0149C114.435 19.0149 112.656 20.7472 111.064 22.4795C110.268 23.3691 109.519 24.0714 109.378 24.0714C109.238 24.0714 109.05 23.9778 108.957 23.8841C108.676 23.6032 109.191 22.3391 110.408 20.3726C111.438 18.6871 111.766 18.4062 112.187 18.7808C112.422 18.968 112.422 19.0149 112.094 19.5767C111.719 20.1385 111.766 20.1385 113.171 19.0149C114.903 17.6571 115.137 17.6103 115.699 18.5467C116.073 19.1085 116.308 19.3894 117.431 19.3894C118.087 19.3894 118.649 19.2958 119.351 19.0617Z" fill="black"/>
<path d="M111.305 19.0616L111.259 19.1085C111.446 19.4362 111.259 19.6703 109.433 20.8876C106.904 22.62 104.563 23.7436 103.393 23.6968C102.035 23.65 101.707 22.7136 101.801 21.8708L101.895 20.9344L100.63 21.9645C98.5704 23.6032 97.4936 23.8841 96.7913 23.0413C96.3699 22.5263 96.6976 21.309 97.634 19.7171C98.43 18.4062 98.7577 18.1721 99.2259 18.5466C99.46 18.7339 99.4132 18.8275 98.8513 19.7639C98.5236 20.3258 98.149 21.0281 98.0086 21.3558C97.7277 22.0113 97.6808 22.7604 97.9149 22.7604C98.149 22.7604 99.5068 21.7772 101.38 20.279C103.065 18.9212 103.487 18.7339 103.721 19.2489C103.767 19.3426 103.58 20.0449 103.299 20.7472C103.018 21.4495 102.784 22.1986 102.784 22.3859C102.784 23.6032 105.312 22.62 109.433 19.8108C109.807 19.5298 110.182 19.2957 110.463 19.1085C110.79 18.8744 111.165 18.7807 111.305 19.0616Z" fill="black"/>
<path d="M75.2494 20.6535H75.2026C78.1055 12.8814 84.4262 5.10928 91.1214 1.36368C93.7902 -0.134564 97.6294 -1.07097 98.7063 2.25326C99.034 3.2833 98.6127 5.95204 97.8167 7.7312C96.5994 10.4936 94.8671 13.256 94.3052 13.3496C93.7434 13.4432 93.837 12.975 94.7734 11.5236C96.2716 9.22944 97.2549 6.98208 97.6294 5.06246C97.9572 3.56422 97.9572 3.37694 97.7231 2.581C97.1144 0.380455 94.6798 0.567736 91.6365 2.30008C87.2354 4.78154 81.5233 10.4936 78.1991 16.7675C75.5304 21.7304 74.4067 26.9742 75.4367 29.5962C76.7009 32.7799 80.0251 32.2649 84.0516 28.2852C84.6603 27.6765 85.784 26.4124 86.5331 25.476C88.6868 22.8073 90.6532 20.279 90.6064 20.2322C90.5596 20.1385 88.0781 20.6067 87.4227 20.794C86.814 20.9813 86.4863 20.8408 86.6267 20.4194C86.7204 20.1385 86.9545 20.0449 87.7972 19.8108C90.5596 19.1085 94.6798 18.8276 95.0543 19.2957C95.3821 19.6703 95.148 19.8576 94.4457 19.8108C94.1179 19.764 93.4624 19.764 93.0411 19.8108L92.2451 19.9044L91.4024 21.309C89.2955 24.7737 86.1585 31.5626 85.784 33.529C85.5967 34.4654 85.3158 34.6995 84.9412 34.2313C84.8007 34.0441 84.8007 33.7163 84.8944 33.1545C85.0348 32.3585 86.7672 27.9106 87.6568 26.0847C88.0313 25.2887 88.0313 25.1951 87.7504 25.476C84.1921 29.5493 82.9748 30.673 80.9615 31.7031C79.3228 32.499 77.6841 32.6863 76.3731 31.9372C75.0622 31.2349 74.2662 29.7366 74.0321 27.5361C73.8917 26.0847 74.5003 22.62 75.2494 20.6535Z" fill="black"/>
<path d="M64.6852 19.1553L64.6383 19.2021C65.9493 18.6871 66.3239 18.6871 66.3239 19.1553C66.3239 19.3894 66.0429 19.5767 65.0597 19.9512C64.3574 20.2322 62.7655 20.794 61.2673 21.3558L58.5986 22.4327L58.5049 23.1818C58.3644 24.2119 57.6622 25.1014 56.7257 25.476C55.883 25.8038 54.9466 25.8506 54.4784 25.5697C54.057 25.3355 54.057 24.5396 54.4784 24.0714C54.8061 23.6968 56.0703 22.8073 56.8194 22.3859L57.1939 22.1986L56.913 20.9813C56.6321 19.9044 56.6321 19.7171 56.8662 19.2021C57.1471 18.5935 57.6153 18.2189 58.0367 18.2189C58.1304 18.2189 58.224 18.2189 58.3176 18.2657C58.7858 18.453 58.7858 18.7339 58.3644 18.968C57.8494 19.2489 57.709 19.8108 57.9431 20.7004C58.1772 21.5899 58.2708 21.7304 58.5986 21.4963C58.739 21.4027 59.9095 20.9345 61.2205 20.4194C62.5314 19.9044 63.9829 19.4362 64.6852 19.1553ZM56.3044 24.5396L56.2575 24.4928C56.9598 24.0246 57.5217 23.0882 57.1003 23.0882C56.913 23.0882 55.2743 24.3055 55.087 24.5864C54.9466 24.8205 54.9934 24.8673 55.368 24.8673C55.6021 24.8673 56.0234 24.7269 56.3044 24.5396Z" fill="black"/>
<path d="M57.0683 19.0617L57.2087 18.8744C57.2555 19.0148 56.9746 19.3426 56.4596 19.764C55.1486 20.8876 52.5735 22.62 50.888 23.3223C49.2025 24.0714 48.0788 23.9778 47.517 23.0882C47.1892 22.5732 47.2829 22.0113 47.8915 20.4194C48.1256 19.8108 48.2661 19.2958 48.2193 19.2489C47.9852 19.0617 45.691 20.4194 44.4268 21.4963C43.1627 22.5732 41.4304 23.7437 41.1026 23.7437C40.9153 23.7437 40.6344 23.65 40.494 23.5096C40.3067 23.3691 40.2599 23.135 40.3067 22.8073C40.494 21.7772 42.3199 18.7339 42.9754 18.4062C43.1627 18.3125 43.3032 18.3125 43.4904 18.4998C43.7714 18.7339 43.7714 18.7807 43.35 19.3426C42.7413 20.1853 41.6176 22.0581 41.4772 22.4795C41.3835 22.7136 41.8986 22.3859 43.2095 21.3558C46.2996 18.968 48.032 18.1721 48.8279 18.7807C49.2961 19.1085 49.2493 19.764 48.7343 21.0281C48.2661 22.1518 48.1725 23.0414 48.5002 23.135C49.343 23.3691 51.8712 22.0581 55.1486 19.7171C56.4596 18.7807 56.881 18.6403 57.0683 19.0617Z" fill="black"/>
<path d="M41.3027 19.3426L41.209 19.2958C42.0986 18.6871 42.3327 18.7339 42.3327 19.2489C42.3327 19.3426 42.1454 19.5767 41.8177 19.9044C40.8813 20.8408 39.1021 22.1986 37.9785 22.8541C35.9184 24.0246 34.7479 24.165 33.8115 23.4159C33.2965 22.9945 33.2496 22.8541 33.2496 22.1518V21.3558L32.126 22.1986C29.9722 23.8373 28.4272 24.3991 27.5844 23.8841C26.4139 23.1818 28.0058 20.3258 30.3 19.0148C30.9555 18.6403 31.5641 18.453 32.0791 18.453C32.7346 18.453 33.2496 18.7339 33.5306 19.2958L33.7647 19.764L34.2329 19.3894C34.7479 18.968 34.9352 18.9212 35.2161 19.2021C35.4034 19.3894 35.3565 19.5767 34.9352 20.3258C34.3265 21.4495 34.1392 22.2922 34.4201 22.7136C34.6074 22.9477 34.7479 22.9945 35.3097 22.9477C36.3866 22.8541 37.6975 22.1518 39.8513 20.4194C40.4599 19.9512 40.9281 19.5767 41.3027 19.3426ZM31.7046 21.309L31.7982 21.3558C32.8751 20.5599 32.9219 20.5131 32.7814 20.0449C32.6878 19.764 32.5473 19.483 32.4537 19.4362C32.4069 19.3894 32.3132 19.3426 32.2196 19.3426C31.1896 19.2958 28.6145 21.4963 28.2867 22.8541C28.1463 23.4627 28.4272 23.4159 29.6445 22.7136C30.1595 22.3859 31.0959 21.7772 31.7046 21.309Z" fill="black"/>
<path d="M26.2333 19.0617L26.2802 19.1553C27.3102 18.7808 27.7784 18.7808 27.7784 19.2021C27.7784 19.3426 27.5443 19.5299 27.1697 19.7172C26.5611 19.9981 25.5779 20.2322 24.7351 20.279C23.3773 20.3726 22.675 19.9981 22.1132 19.4362C21.8791 19.2021 21.645 19.0149 21.5513 19.0149C21.3172 19.0149 19.5381 20.7472 17.9462 22.4795C17.1502 23.3691 16.4011 24.0714 16.2607 24.0714C16.1202 24.0714 15.9329 23.9778 15.8393 23.8841C15.5584 23.6032 16.0734 22.3391 17.2907 20.3726C18.3207 18.6871 18.6485 18.4062 19.0699 18.7808C19.304 18.968 19.304 19.0149 18.9762 19.5767C18.6017 20.1385 18.6485 20.1385 20.0531 19.0149C21.7854 17.6571 22.0195 17.6103 22.5814 18.5467C22.9559 19.1085 23.19 19.3894 24.3137 19.3894C24.9692 19.3894 25.531 19.2958 26.2333 19.0617Z" fill="black"/>
<path d="M5.25837 33.9505L5.30519 34.0441C4.88381 33.6227 5.7734 30.8135 7.83348 26.0379C9.7531 21.5431 10.8768 19.4362 18.1339 7.02893L20.4749 3.0024H19.6789C18.8362 3.0024 15.1842 3.28332 12.89 3.51742C6.99072 4.1729 4.74335 4.50064 2.54281 4.96884C1.65323 5.15612 0.857291 5.29658 0.763651 5.24976C0.52955 5.15612 0.57637 4.73474 0.810471 4.54746C1.09139 4.36018 3.90059 3.79834 5.91386 3.51742C9.42536 3.0024 16.3547 2.3001 19.398 2.11282L21.0367 2.01918L21.4581 1.45734C21.7859 1.03596 21.9731 0.895498 22.2541 0.94232C22.535 0.98914 22.5818 1.08278 22.5818 1.45734L22.535 1.92554L23.6587 1.8319C24.2673 1.78508 26.6083 1.69144 28.8557 1.64462C34.8486 1.50416 40.6543 1.87872 41.4503 2.44056C41.778 2.62784 41.6844 3.09604 41.3098 3.28332C41.0757 3.42378 40.9821 3.42378 40.7948 3.2365C40.3266 2.72148 38.922 2.62784 30.8689 2.62784C26.6551 2.62784 22.8627 2.67466 22.4413 2.72148L21.6922 2.86194L18.883 7.73122C17.3379 10.4 15.6992 13.1624 15.2779 13.8647C11.1109 20.9813 8.3485 26.5997 6.75662 31.2349C6.2416 32.6863 6.19478 32.9672 6.38206 33.2481C6.56934 33.5291 6.56934 33.6227 6.33524 33.8568C5.96068 34.1845 5.53929 34.2314 5.25837 33.9505Z" fill="black"/>
</svg>
