<svg width="32" height="32" viewBox="0 0 32 32" fill="none" xmlns="http://www.w3.org/2000/svg">
<path d="M14.667 4.2401V27.7601C14.667 28.6134 13.8803 29.2534 13.0537 29.0668C7.09366 27.7334 2.66699 22.3868 2.66699 16.0001C2.66699 9.61343 7.09366 4.26677 13.0537 2.93344C13.8803 2.74677 14.667 3.38677 14.667 4.2401ZM17.3737 4.2401V13.3201C17.3737 14.0534 17.9737 14.6534 18.707 14.6534H27.7603C28.6137 14.6534 29.2537 13.8668 29.067 13.0268C27.9337 8.01344 24.0003 4.06677 19.0003 2.93344C18.1603 2.74677 17.3737 3.38677 17.3737 4.2401ZM17.3737 18.6801V27.7601C17.3737 28.6134 18.1603 29.2534 19.0003 29.0668C24.0137 27.9334 27.947 23.9734 29.0803 18.9601C29.267 18.1334 28.6137 17.3334 27.7737 17.3334H18.7203C17.9737 17.3468 17.3737 17.9468 17.3737 18.6801Z" fill="#0E0E0E"/>
</svg>
