<svg width="32" height="32" viewBox="0 0 32 32" fill="none" xmlns="http://www.w3.org/2000/svg">
<path d="M11.8403 13.2534L12.547 13.9601C12.9337 14.3467 13.5737 14.3467 13.9603 13.9601C14.347 13.5734 14.347 12.9334 13.9603 12.5467L12.787 11.3734C12.267 10.8534 11.427 10.8534 10.907 11.3734L9.72033 12.5467C9.33366 12.9334 9.33366 13.5734 9.72033 13.9601C10.107 14.3467 10.747 14.3467 11.1337 13.9601L11.8403 13.2534ZM16.0003 23.3334C18.707 23.3334 21.067 21.8534 22.3337 19.6667C22.587 19.2267 22.267 18.6667 21.747 18.6667H10.2537C9.74699 18.6667 9.41366 19.2267 9.66699 19.6667C10.9337 21.8534 13.2937 23.3334 16.0003 23.3334ZM18.0403 13.9601C18.427 14.3467 19.067 14.3467 19.4537 13.9601L20.1603 13.2534L20.867 13.9601C21.2537 14.3467 21.8937 14.3467 22.2803 13.9601C22.667 13.5734 22.667 12.9334 22.2803 12.5467L21.107 11.3734C20.587 10.8534 19.747 10.8534 19.227 11.3734L18.0537 12.5467C17.6537 12.9334 17.6537 13.5734 18.0403 13.9601ZM15.987 2.66675C8.62699 2.66675 2.66699 8.62675 2.66699 16.0001C2.66699 23.3734 8.62699 29.3334 15.987 29.3334C23.347 29.3334 29.3337 23.3734 29.3337 16.0001C29.3337 8.62675 23.3603 2.66675 15.987 2.66675ZM16.0003 26.6667C10.107 26.6667 5.33366 21.8934 5.33366 16.0001C5.33366 10.1067 10.107 5.33341 16.0003 5.33341C21.8937 5.33341 26.667 10.1067 26.667 16.0001C26.667 21.8934 21.8937 26.6667 16.0003 26.6667Z" fill="#0E0E0E"/>
</svg>
